<?xml version="1.0" encoding="UTF-8" standalone="no"?>
<!-- Uploaded to: SVG Repo, www.svgrepo.com, Generator: SVG Repo Mixer Tools -->

<svg
   fill="#000000"
   width="800"
   height="800"
   viewBox="0 0 24 24"
   id="next"
   data-name="Flat Color"
   class="icon flat-color"
   version="1.1"
   sodipodi:docname="last-svgrepo-com.svg"
   inkscape:version="1.4 (86a8ad7, 2024-10-11)"
   xmlns:inkscape="http://www.inkscape.org/namespaces/inkscape"
   xmlns:sodipodi="http://sodipodi.sourceforge.net/DTD/sodipodi-0.dtd"
   xmlns="http://www.w3.org/2000/svg"
   xmlns:svg="http://www.w3.org/2000/svg">
  <sodipodi:namedview
     id="namedview1"
     pagecolor="#ffffff"
     bordercolor="#000000"
     borderopacity="0.25"
     inkscape:showpageshadow="2"
     inkscape:pageopacity="0.0"
     inkscape:pagecheckerboard="0"
     inkscape:deskcolor="#d1d1d1"
     inkscape:zoom="0.96625"
     inkscape:cx="400.51746"
     inkscape:cy="400"
     inkscape:window-width="1920"
     inkscape:window-height="991"
     inkscape:window-x="-9"
     inkscape:window-y="-9"
     inkscape:window-maximized="1"
     inkscape:current-layer="next" />
  <defs
     id="defs1" />
  <g
     id="g1"
     transform="matrix(-1,0,0,1,28.53868,0.00818708)"
     style="fill:#ffffff;fill-opacity:1">
    <path
       id="primary"
       d="m 18.6,11.2 -12,-9 A 1,1 0 0 0 5,3 v 18 a 1,1 0 0 0 0.55,0.89 1,1 0 0 0 1,-0.09 l 12,-9 a 1,1 0 0 0 0,-1.6 z"
       style="fill:#ffffff;fill-opacity:1" />
    <path
       id="primary-4"
       d="m 27.727361,11.2 -12,-9.0000002 a 1,1 0 0 0 -1.6,0.8 V 21 a 1,1 0 0 0 0.55,0.89 1,1 0 0 0 1,-0.09 l 12,-9 a 1,1 0 0 0 0,-1.6 z"
       style="fill:#ffffff;fill-opacity:1" />
  </g>
</svg>
