<?xml version="1.0" encoding="UTF-8" standalone="no"?>
<!-- Uploaded to: SVG Repo, www.svgrepo.com, Generator: SVG Repo Mixer Tools -->

<svg
   fill="#000000"
   width="800"
   height="800"
   viewBox="0 0 24 24"
   id="next"
   data-name="Flat Color"
   class="icon flat-color"
   version="1.1"
   xmlns="http://www.w3.org/2000/svg"
   xmlns:svg="http://www.w3.org/2000/svg">
  <defs
     id="defs1" />
  <g
     id="g1"
     transform="translate(-4.5386805,0.00818708)">
    <path
       id="primary"
       d="m 18.6,11.2 -12,-9 A 1,1 0 0 0 5,3 v 18 a 1,1 0 0 0 0.55,0.89 1,1 0 0 0 1,-0.09 l 12,-9 a 1,1 0 0 0 0,-1.6 z"
       style="fill:#000000" />
    <path
       id="primary-4"
       d="m 27.727361,11.2 -12,-9.0000002 a 1,1 0 0 0 -1.6,0.8 V 21 a 1,1 0 0 0 0.55,0.89 1,1 0 0 0 1,-0.09 l 12,-9 a 1,1 0 0 0 0,-1.6 z"
       style="fill:#000000" />
  </g>
</svg>
