<?xml version="1.0" encoding="UTF-8" standalone="no"?>
<!-- Uploaded to: SVG Repo, www.svgrepo.com, Generator: SVG Repo Mixer Tools -->

<svg
   width="792.81018"
   height="865.35828"
   viewBox="0 0 14.865191 16.225468"
   fill="none"
   version="1.1"
   id="svg1"
   sodipodi:docname="rotate-counter-clockwise-svgrepo-com.svg"
   inkscape:version="1.4 (86a8ad7, 2024-10-11)"
   xmlns:inkscape="http://www.inkscape.org/namespaces/inkscape"
   xmlns:sodipodi="http://sodipodi.sourceforge.net/DTD/sodipodi-0.dtd"
   xmlns="http://www.w3.org/2000/svg"
   xmlns:svg="http://www.w3.org/2000/svg">
  <defs
     id="defs1" />
  <sodipodi:namedview
     id="namedview1"
     pagecolor="#ffffff"
     bordercolor="#000000"
     borderopacity="0.25"
     inkscape:showpageshadow="2"
     inkscape:pageopacity="0.0"
     inkscape:pagecheckerboard="0"
     inkscape:deskcolor="#d1d1d1"
     inkscape:zoom="0.68324193"
     inkscape:cx="254.66821"
     inkscape:cy="346.14386"
     inkscape:window-width="1920"
     inkscape:window-height="991"
     inkscape:window-x="-9"
     inkscape:window-y="-9"
     inkscape:window-maximized="1"
     inkscape:current-layer="svg1" />
  <g
     id="g1"
     transform="matrix(0.8756475,0,0,0.8756475,0.92426183,1.0088388)">
    <path
       fill-rule="evenodd"
       clip-rule="evenodd"
       d="M 10.335434,4.738954 H 4.5297574 c -0.2290256,0 -0.4146911,0.1856656 -0.4146911,0.4146912 v 5.8056778 c 0,0.228992 0.1856655,0.414691 0.4146911,0.414691 h 5.8056766 c 0.229025,0 0.414691,-0.185699 0.414691,-0.414691 V 5.1536452 c 0,-0.2290256 -0.185666,-0.4146912 -0.414691,-0.4146912 z M 4.5297574,3.9095717 c -0.6870851,0 -1.2440734,0.5569883 -1.2440734,1.2440734 v 5.8056779 c 0,0.68706 0.5569883,1.244073 1.2440734,1.244073 h 5.8056766 c 0.68706,0 1.244073,-0.557013 1.244073,-1.244073 V 5.1536452 c 0,-0.6870852 -0.557013,-1.2440734 -1.244073,-1.2440734 z"
       fill="#000000"
       id="path1"
       style="fill:#ffffff;fill-opacity:1;stroke:#ffffff;stroke-width:0.1875;stroke-dasharray:none;stroke-opacity:1"
       sodipodi:nodetypes="ssssssssssssssssss" />
    <path
       d="m 9.310608,2.5175543 c 0.1361928,0.105937 0.3346391,0.00887 0.3346391,-0.163662 V 1.7410037 c 1.6432629,1.66e-5 2.6413169,0.301663 3.2431999,0.9035871 0.601965,0.6019408 0.903612,1.6000029 0.903612,3.2433244 0,0.2290339 0.185698,0.4146911 0.414691,0.4146911 0.228992,0 0.414691,-0.1856572 0.414691,-0.4146911 0,-1.7053593 -0.304798,-2.9880903 -1.146538,-3.8297889 C 12.633246,1.2164526 11.350523,0.91163719 9.6452471,0.91162479 v -0.6126796 c 0,-0.172542 -0.1984463,-0.26959938 -0.3346391,-0.1636687 L 7.9895679,1.16275 c -0.1067249,0.083013 -0.1067249,0.2443195 0,0.3273324 z"
       style="clip-rule:evenodd;fill:#ffffff;fill-opacity:1;fill-rule:evenodd;stroke:#ffffff;stroke-width:0.1875;stroke-dasharray:none;stroke-opacity:1"
       id="path1-8" />
    <path
       d="m 5.5545829,13.707914 c -0.136193,-0.105937 -0.334639,-0.0089 -0.334639,0.163662 v 0.612888 c -1.643263,-1.6e-5 -2.641317,-0.301663 -3.2432,-0.903587 -0.601965,-0.601941 -0.903612,-1.600003 -0.903612,-3.243325 0,-0.229034 -0.18569796,-0.4146911 -0.41469091,-0.4146911 -0.22899199,0 -0.41469099,0.1856571 -0.41469099,0.4146911 0,1.70536 0.304798,2.988091 1.1465379,3.82979 0.841657,0.841673 2.12438,1.146489 3.829656,1.146501 v 0.61268 c 0,0.172542 0.198446,0.269599 0.334639,0.163669 l 1.32104,-1.027474 c 0.106725,-0.08301 0.106725,-0.24432 0,-0.327333 z"
       style="clip-rule:evenodd;fill:#ffffff;fill-opacity:1;fill-rule:evenodd;stroke:#ffffff;stroke-width:0.1875;stroke-dasharray:none;stroke-opacity:1"
       id="path1-8-5" />
  </g>
</svg>
