<?xml version="1.0" encoding="UTF-8" standalone="no"?>
<!-- Generator: Adobe Illustrator 28.1.0, SVG Export Plug-In . SVG Version: 6.00 Build 0)  -->

<svg
   version="1.1"
   id="Livello_1"
   x="0px"
   y="0px"
   viewBox="0 0 172 42"
   style="enable-background:new 0 0 172 42;"
   xml:space="preserve"
   sodipodi:docname="esaote_vector.svg"
   inkscape:version="1.4 (86a8ad7, 2024-10-11)"
   xmlns:inkscape="http://www.inkscape.org/namespaces/inkscape"
   xmlns:sodipodi="http://sodipodi.sourceforge.net/DTD/sodipodi-0.dtd"
   xmlns="http://www.w3.org/2000/svg"
   xmlns:svg="http://www.w3.org/2000/svg"><defs
   id="defs7"><filter
     inkscape:collect="always"
     style="color-interpolation-filters:sRGB"
     id="filter7"
     x="-0.012670364"
     y="-0.051528642"
     width="1.0252227"
     height="1.1030575"><feGaussianBlur
       inkscape:collect="always"
       stdDeviation="0.1336875"
       id="feGaussianBlur7" /></filter></defs><sodipodi:namedview
   id="namedview7"
   pagecolor="#ffffff"
   bordercolor="#000000"
   borderopacity="0.25"
   inkscape:showpageshadow="2"
   inkscape:pageopacity="0.0"
   inkscape:pagecheckerboard="0"
   inkscape:deskcolor="#d1d1d1"
   inkscape:zoom="5.1366279"
   inkscape:cx="70.47425"
   inkscape:cy="14.893039"
   inkscape:window-width="1920"
   inkscape:window-height="991"
   inkscape:window-x="-9"
   inkscape:window-y="-9"
   inkscape:window-maximized="1"
   inkscape:current-layer="Livello_1" />
<style
   type="text/css"
   id="style1">
	.st0{fill:#CC0000;}
</style>






<g
   id="g7"
   transform="matrix(0.81601564,0,0,0.81601564,15.822655,3.9044723)"
   style="stroke:#ffffff;stroke-opacity:1;stroke-width:3.67640012;stroke-dasharray:none;stroke-linecap:round;stroke-linejoin:round;paint-order:markers stroke fill;filter:url(#filter7)"><path
     d="m 139.71,36.12 c 0.18,0.39 0.03,0.85 -0.35,1.06 -0.06,0.03 -0.12,0.07 -0.19,0.1 -0.51,0.27 -1.15,0.53 -1.92,0.76 -0.78,0.23 -1.67,0.35 -2.68,0.35 -0.94,0 -1.81,-0.18 -2.6,-0.55 -0.8,-0.36 -1.43,-0.9 -1.9,-1.61 -0.47,-0.71 -0.71,-1.56 -0.71,-2.54 V 11.33 h -3.2 c -0.45,0 -0.81,-0.36 -0.81,-0.81 0,-0.45 0.36,-0.81 0.81,-0.81 h 3.2 v -8.9 c 0,-0.45 0.36,-0.81 0.81,-0.81 h 0.22 c 0.45,0 0.81,0.36 0.81,0.81 V 9.7 h 5.86 c 0.45,0 0.81,0.36 0.81,0.81 0,0.45 -0.36,0.81 -0.81,0.81 h -5.86 v 22.1 c 0.07,1.06 0.47,1.86 1.19,2.41 0.72,0.55 1.55,0.82 2.49,0.82 1.19,0 2.21,-0.21 3.06,-0.62 0.25,-0.12 0.47,-0.23 0.65,-0.32 0.41,-0.21 0.91,-0.03 1.1,0.38 z"
     id="path1"
     style="stroke:#ffffff;stroke-opacity:1;stroke-width:3.67640012;stroke-dasharray:none;stroke-linecap:round;stroke-linejoin:round;paint-order:markers stroke fill" /><path
     d="m 48.87,38.39 c -2.17,0 -4.18,-0.37 -6.05,-1.11 -1.66,-0.66 -3.14,-1.64 -4.44,-2.95 -0.28,-0.28 -0.3,-0.73 -0.06,-1.04 l 0.03,-0.04 c 0.28,-0.37 0.82,-0.44 1.17,-0.13 1.31,1.15 2.66,2.02 4.02,2.62 1.59,0.69 3.34,1.03 5.26,1.03 2.64,0 4.77,-0.56 6.4,-1.68 1.63,-1.12 2.44,-2.67 2.44,-4.65 0,-1.3 -0.37,-2.31 -1.11,-3.03 -0.74,-0.72 -1.81,-1.31 -3.2,-1.76 -1.39,-0.45 -3.08,-0.91 -5.07,-1.38 -1.95,-0.51 -3.57,-1 -4.85,-1.49 -1.28,-0.49 -2.25,-1.14 -2.9,-1.98 -0.65,-0.83 -0.98,-1.99 -0.98,-3.46 0,-1.88 0.46,-3.4 1.38,-4.57 0.92,-1.17 2.15,-2.05 3.69,-2.62 1.54,-0.58 3.23,-0.87 5.07,-0.87 2.24,0 4.17,0.38 5.8,1.14 1.32,0.62 2.34,1.36 3.07,2.24 0.28,0.34 0.22,0.84 -0.11,1.12 -0.33,0.29 -0.83,0.25 -1.12,-0.07 -0.75,-0.82 -1.74,-1.47 -2.95,-1.94 -1.5,-0.58 -3.14,-0.87 -4.91,-0.87 -1.45,0 -2.78,0.22 -4.01,0.65 -1.23,0.43 -2.22,1.09 -2.98,1.98 -0.76,0.88 -1.14,2.07 -1.14,3.54 0,1.19 0.27,2.11 0.81,2.76 0.54,0.65 1.36,1.16 2.44,1.54 1.08,0.38 2.46,0.78 4.12,1.22 2.2,0.54 4.11,1.09 5.72,1.65 1.61,0.56 2.85,1.29 3.71,2.19 0.87,0.9 1.3,2.17 1.3,3.79 0,2.53 -0.97,4.52 -2.9,5.98 -1.91,1.46 -4.47,2.19 -7.65,2.19"
     id="path2"
     style="stroke:#ffffff;stroke-opacity:1;stroke-width:3.67640012;stroke-dasharray:none;stroke-linecap:round;stroke-linejoin:round;paint-order:markers stroke fill" /><path
     d="m 84.55,29.85 c 0,0.32 -0.08,0.69 -0.24,1.11 -0.16,0.41 -0.41,0.84 -0.73,1.27 -0.94,1.37 -2.34,2.48 -4.2,3.32 -1.86,0.85 -3.91,1.27 -6.16,1.27 -1.45,0 -2.76,-0.32 -3.93,-0.97 -1.18,-0.65 -2.1,-1.51 -2.77,-2.59 -0.67,-1.08 -1,-2.27 -1,-3.56 0,-1.98 0.92,-3.57 2.77,-4.78 1.84,-1.21 4.27,-1.81 7.27,-1.81 1.59,0 3.14,0.14 4.64,0.4 1.5,0.27 2.96,0.68 4.37,1.22 v 5.12 z m 1.75,7.93 c 0.74,0.13 1.06,-0.25 1.06,-0.93 0,-0.32 -0.21,-0.59 -0.5,-0.74 -0.09,-0.05 -0.17,-0.11 -0.23,-0.19 -0.16,-0.2 -0.24,-0.5 -0.24,-0.89 V 20.2 c 0,-3.36 -0.96,-6.02 -2.87,-7.98 -1.92,-1.97 -4.5,-2.95 -7.75,-2.95 -1.55,0 -3.16,0.31 -4.83,0.92 -1.6,0.59 -3.29,1.49 -5.07,2.69 -0.11,0.07 -0.14,0.22 -0.06,0.32 l 0.66,0.97 c 0.07,0.11 0.21,0.13 0.32,0.06 1.53,-1.05 3.03,-1.86 4.5,-2.42 1.54,-0.58 2.99,-0.87 4.37,-0.87 2.71,0 4.87,0.84 6.48,2.52 1.61,1.68 2.41,3.9 2.41,6.64 v 2.98 c -1.3,-0.47 -2.77,-0.84 -4.39,-1.11 -1.63,-0.27 -3.2,-0.41 -4.72,-0.41 -2.31,0 -4.34,0.35 -6.07,1.05 -1.74,0.7 -3.11,1.66 -4.12,2.87 -1.01,1.21 -1.52,2.64 -1.52,4.3 0,1.59 0.41,3.04 1.22,4.35 0.81,1.32 1.93,2.35 3.34,3.11 1.41,0.76 2.98,1.13 4.72,1.13 2.35,0 4.55,-0.46 6.62,-1.38 2.06,-0.92 3.74,-2.21 5.04,-3.88 v 2.44 c 0.04,0.51 0.2,0.98 0.49,1.41 0.27,0.45 0.66,0.71 1.14,0.82"
     id="path3"
     style="stroke:#ffffff;stroke-opacity:1;stroke-width:3.67640012;stroke-dasharray:none;stroke-linecap:round;stroke-linejoin:round;paint-order:markers stroke fill" /><path
     d="m 145.23,23.37 c 0.24,-6.71 5.73,-12.15 12.45,-12.32 5.41,-0.14 10.09,3.07 12.1,7.71 l -24.02,8.74 c -0.39,-1.3 -0.58,-2.69 -0.53,-4.13 m 12.8,13.28 c -5.26,0 -9.78,-3.18 -11.75,-7.72 l 24.02,-8.74 1.7,-0.62 c -0.15,-0.49 -0.32,-0.96 -0.52,-1.42 -2.26,-5.32 -7.57,-9.02 -13.74,-8.9 -7.78,0.15 -14.13,6.48 -14.3,14.26 -0.04,1.61 0.19,3.16 0.63,4.61 0.15,0.49 0.32,0.96 0.52,1.42 2.22,5.23 7.4,8.9 13.45,8.9 5.08,0 9.56,-2.6 12.17,-6.54 0.31,-0.47 0.09,-1.1 -0.43,-1.3 l -0.05,-0.02 c -0.38,-0.14 -0.81,0 -1.03,0.33 -2.31,3.47 -6.23,5.74 -10.67,5.74"
     id="path4"
     style="stroke:#ffffff;stroke-opacity:1;stroke-width:3.67640012;stroke-dasharray:none;stroke-linecap:round;stroke-linejoin:round;paint-order:markers stroke fill" /><path
     d="m 107.33,36.66 c -7.08,0 -12.82,-5.74 -12.82,-12.82 0,-7.08 5.74,-12.83 12.82,-12.83 7.08,0 12.82,5.74 12.82,12.83 0,7.07 -5.74,12.82 -12.82,12.82 m 0,-27.39 c -8.04,0 -14.56,6.52 -14.56,14.56 0,8.04 6.52,14.56 14.56,14.56 8.04,0 14.56,-6.52 14.56,-14.56 0,-8.04 -6.52,-14.56 -14.56,-14.56"
     id="path5"
     style="stroke:#ffffff;stroke-opacity:1;stroke-width:3.67640012;stroke-dasharray:none;stroke-linecap:round;stroke-linejoin:round;paint-order:markers stroke fill" /><path
     class="st0"
     d="m 33.13,18.8 c 0.06,-0.02 0.05,-0.09 0.03,-0.15 -0.01,-0.04 -0.02,-0.07 -0.03,-0.11 -0.06,-0.2 -0.12,-0.4 -0.19,-0.6 -0.03,-0.09 -0.06,-0.18 -0.09,-0.26 -0.06,-0.18 -0.13,-0.36 -0.2,-0.54 -0.04,-0.1 -0.08,-0.2 -0.11,-0.3 -0.07,-0.17 -0.13,-0.33 -0.21,-0.5 C 32.28,16.23 32.24,16.12 32.19,16.02 29.51,10.15 23.89,6.05 17.33,5.8 17.12,5.79 16.91,5.79 16.69,5.79 c -0.21,0 -0.43,0 -0.64,0.01 C 9.42,6.03 3.7,9.84 0.76,15.36 c -0.78,1.52 -0.22,2.63 1.39,3.21 1.48,0.53 2.75,0.08 3.33,-1.08 0.07,-0.12 0.14,-0.24 0.21,-0.36 0,-0.01 0.01,-0.01 0.01,-0.02 0.08,-0.13 0.14,-0.23 0.21,-0.33 0.34,-0.52 0.71,-1.01 1.12,-1.47 0.35,-0.4 0.73,-0.78 1.14,-1.14 2.27,-2.01 5.26,-3.22 8.53,-3.22 3.27,0 6.25,1.22 8.53,3.22 0.4,0.35 0.78,0.74 1.14,1.14 0.69,0.78 1.28,1.64 1.76,2.56 0.13,0.25 0.26,0.51 0.37,0.77 l -0.81,0.29 -0.81,0.29 -3.34,1.21 -5.59,2.02 -1.2,0.44 -0.06,0.02 -0.04,0.01 -1.22,0.44 -0.66,0.24 -0.6,0.22 -1.26,0.46 -6.98,2.52 c 0.08,0.28 0.16,0.55 0.26,0.81 0.1,0.27 0.21,0.54 0.32,0.8 l 3.35,-1.21 5.57,-2.02 1.22,-0.44 0.04,-0.02 0.05,-0.02 1.21,-0.44 0.66,-0.24 0.6,-0.22 1.26,-0.46 6.99,-2.53 0.81,-0.29 0.81,-0.29 0.81,-0.29 0.81,-0.29 C 30.62,19.37 30.53,19.1 30.43,18.83 30.33,18.56 30.23,18.3 30.11,18.04 30,17.78 29.88,17.52 29.75,17.26 29.55,16.87 29.34,16.49 29.11,16.12 27.92,14.21 26.3,12.59 24.39,11.4 22.16,10.01 19.52,9.21 16.7,9.21 13.88,9.21 11.24,10.01 9,11.4 7.09,12.59 5.47,14.21 4.28,16.12 4.2,16.24 4.13,16.37 4.06,16.5 v 0 c 0,0 0,0 0,0.01 -0.4,0.75 -1.22,0.46 -1.22,0.46 0,0 -0.81,-0.3 -0.41,-1.06 v 0 0 c 1.98,-3.57 5.26,-6.31 9.2,-7.61 1.42,-0.47 2.92,-0.74 4.49,-0.8 0.2,-0.01 0.4,-0.01 0.6,-0.01 0.2,0 0.4,0 0.6,0.01 1.56,0.06 3.06,0.33 4.48,0.8 -0.06,-0.05 -0.12,-0.09 -0.19,-0.14 4.56,1.28 8.32,4.31 10.43,8.27 0.06,0.1 0.11,0.21 0.16,0.31 0.08,0.15 0.15,0.3 0.22,0.46 0.05,0.1 0.09,0.19 0.13,0.29 0.07,0.16 0.15,0.33 0.21,0.5 0.03,0.09 0.07,0.17 0.1,0.26 0.05,0.13 0.1,0.26 0.14,0.39 v 0 c 0.03,0.11 0.06,0.18 0.13,0.16"
     id="path6"
     style="stroke:#ffffff;stroke-opacity:1;stroke-width:3.67640012;stroke-dasharray:none;stroke-linecap:round;stroke-linejoin:round;paint-order:markers stroke fill" /><path
     class="st0"
     d="m 16.7,41.03 c -0.07,0 -0.15,0 -0.22,0 0.07,0 0.14,0 0.22,0 0.07,0 0.15,0 0.22,0 -0.07,0 -0.15,0 -0.22,0 M 31.24,29.11 v 0 c -1.62,-0.59 -2.62,-0.05 -3.54,1.45 -0.01,0.02 -0.03,0.04 -0.04,0.06 -0.38,0.62 -0.82,1.2 -1.3,1.75 -0.35,0.4 -0.73,0.78 -1.14,1.14 -1.27,1.12 -2.77,2 -4.41,2.55 -1.29,0.43 -2.68,0.67 -4.11,0.67 -1.44,0 -2.82,-0.23 -4.12,-0.67 C 10.94,35.5 9.44,34.63 8.17,33.51 7.77,33.16 7.39,32.78 7.03,32.37 6.34,31.59 5.75,30.73 5.27,29.81 5.14,29.55 5.01,29.29 4.9,29.03 4.78,28.77 4.68,28.5 4.58,28.23 4.48,27.96 4.4,27.69 4.32,27.42 4.24,27.15 4.17,26.87 4.11,26.59 3.92,25.71 3.82,24.79 3.82,23.86 c 0,-0.94 0.1,-1.85 0.29,-2.74 L 3.29,20.83 2.48,20.53 C 2.23,21.6 2.1,22.71 2.1,23.86 c 0,1.14 0.13,2.26 0.38,3.33 0.07,0.28 0.14,0.56 0.22,0.83 0.08,0.27 0.17,0.54 0.27,0.81 0.1,0.27 0.2,0.54 0.32,0.8 0.11,0.27 0.24,0.53 0.37,0.79 0.2,0.39 0.41,0.77 0.64,1.14 1.19,1.91 2.81,3.53 4.72,4.72 0.61,0.38 1.24,0.71 1.9,0.99 1.78,0.77 3.73,1.19 5.79,1.19 2.06,0 4.01,-0.42 5.79,-1.19 0.66,-0.28 1.3,-0.62 1.9,-0.99 1.91,-1.19 3.53,-2.81 4.72,-4.72 0.08,-0.13 0.15,-0.26 0.23,-0.38 h 0.01 v 0 c 0.45,-0.74 1.22,-0.46 1.22,-0.46 0,0 0.86,0.3 0.41,1.06 -0.01,0.02 -0.02,0.03 -0.03,0.05 -1.65,2.96 -4.2,5.35 -7.27,6.81 -0.62,0.29 -1.25,0.54 -1.9,0.76 -1.33,0.43 -2.73,0.7 -4.18,0.78 -0.09,0 -0.18,0.01 -0.27,0.01 -0.21,0.01 -0.42,0.01 -0.64,0.01 -0.21,0 -0.42,0 -0.64,-0.01 -0.09,0 -0.18,-0.01 -0.26,-0.01 -1.38,-0.07 -2.72,-0.29 -4,-0.65 C 11.05,39.32 10.33,39.06 9.63,38.76 6.06,37.23 3.14,34.57 1.37,31.26 1.31,31.16 1.26,31.05 1.21,30.95 1.13,30.8 1.06,30.64 0.98,30.49 0.93,30.4 0.89,30.3 0.85,30.2 0.78,30.03 0.7,29.86 0.64,29.69 0.6,29.6 0.57,29.52 0.54,29.43 0.47,29.25 0.41,29.07 0.34,28.89 0.31,28.82 0.29,28.74 0.26,28.67 0.21,28.51 0.16,28.34 0.11,28.17 v 0 C 0.1,28.15 0.08,28.07 0.03,28.09 0,28.06 0,28.11 0,28.13 c 0.01,0.04 0.02,0.09 0.03,0.13 0.05,0.21 0.11,0.43 0.17,0.64 0.02,0.08 0.04,0.15 0.06,0.23 0.06,0.2 0.12,0.39 0.18,0.59 0.03,0.09 0.06,0.18 0.09,0.26 0.06,0.19 0.13,0.37 0.2,0.55 0.04,0.1 0.07,0.2 0.11,0.3 0.07,0.17 0.14,0.34 0.21,0.51 0.05,0.11 0.09,0.22 0.14,0.32 1.64,3.57 4.36,6.49 7.72,8.29 2.16,1.15 4.58,1.84 7.14,1.94 0.21,0.01 0.42,0.01 0.64,0.01 0.21,0 0.43,0 0.64,-0.01 2.58,-0.09 5.02,-0.72 7.21,-1.78 3.45,-1.67 6.28,-4.4 8.08,-7.76 0.84,-1.52 0.24,-2.66 -1.38,-3.24"
     id="path7"
     style="stroke:#ffffff;stroke-opacity:1;stroke-width:3.67640012;stroke-dasharray:none;stroke-linecap:round;stroke-linejoin:round;paint-order:markers stroke fill" /></g>
</svg>
