<?xml version="1.0" encoding="UTF-8" standalone="no"?>
<!-- Generator: Adobe Illustrator 28.1.0, SVG Export Plug-In . SVG Version: 6.00 Build 0)  -->

<svg
   version="1.1"
   id="Livello_1"
   x="0px"
   y="0px"
   viewBox="0 0 36.823643 36.823643"
   xml:space="preserve"
   width="36.823643"
   height="36.823643"
   sodipodi:docname="esaote_e.svg"
   inkscape:version="1.4 (86a8ad7, 2024-10-11)"
   xmlns:inkscape="http://www.inkscape.org/namespaces/inkscape"
   xmlns:sodipodi="http://sodipodi.sourceforge.net/DTD/sodipodi-0.dtd"
   xmlns="http://www.w3.org/2000/svg"
   xmlns:svg="http://www.w3.org/2000/svg"><sodipodi:namedview
   id="namedview1"
   pagecolor="#ffffff"
   bordercolor="#000000"
   borderopacity="0.25"
   inkscape:showpageshadow="2"
   inkscape:pageopacity="0.0"
   inkscape:pagecheckerboard="0"
   inkscape:deskcolor="#d1d1d1"
   inkscape:zoom="8.6625793"
   inkscape:cx="8.1961731"
   inkscape:cy="27.993972"
   inkscape:window-width="1920"
   inkscape:window-height="991"
   inkscape:window-x="-9"
   inkscape:window-y="-9"
   inkscape:window-maximized="1"
   inkscape:current-layer="Livello_1" /><defs
   id="defs7"><filter
     style="color-interpolation-filters:sRGB"
     id="filter7"
     x="-0.037876315"
     y="-0.058021503"
     width="1.0757705"
     height="1.1160445"><feGaussianBlur
       stdDeviation="0.1336875"
       id="feGaussianBlur7" /></filter></defs>
<style
   type="text/css"
   id="style1">
	.st0{fill:#CC0000;}
</style>






<circle
   style="fill:#ffffff;stroke:none;stroke-width:3;stroke-linecap:round;stroke-linejoin:round;paint-order:markers stroke fill;fill-opacity:1"
   id="path1"
   cx="18.411821"
   cy="18.411821"
   r="16.911821" /><g
   id="g1"
   transform="matrix(0.75118623,0,0,0.75118623,-3.6393385,0.88455315)"><path
     class="st0"
     d="m 33.13,18.8 c 0.06,-0.02 0.05,-0.09 0.03,-0.15 -0.01,-0.04 -0.02,-0.07 -0.03,-0.11 -0.06,-0.2 -0.12,-0.4 -0.19,-0.6 -0.03,-0.09 -0.06,-0.18 -0.09,-0.26 -0.06,-0.18 -0.13,-0.36 -0.2,-0.54 -0.04,-0.1 -0.08,-0.2 -0.11,-0.3 -0.07,-0.17 -0.13,-0.33 -0.21,-0.5 C 32.28,16.23 32.24,16.12 32.19,16.02 29.51,10.15 23.89,6.05 17.33,5.8 17.12,5.79 16.91,5.79 16.69,5.79 c -0.21,0 -0.43,0 -0.64,0.01 C 9.42,6.03 3.7,9.84 0.76,15.36 c -0.78,1.52 -0.22,2.63 1.39,3.21 1.48,0.53 2.75,0.08 3.33,-1.08 0.07,-0.12 0.14,-0.24 0.21,-0.36 0,-0.01 0.01,-0.01 0.01,-0.02 0.08,-0.13 0.14,-0.23 0.21,-0.33 0.34,-0.52 0.71,-1.01 1.12,-1.47 0.35,-0.4 0.73,-0.78 1.14,-1.14 2.27,-2.01 5.26,-3.22 8.53,-3.22 3.27,0 6.25,1.22 8.53,3.22 0.4,0.35 0.78,0.74 1.14,1.14 0.69,0.78 1.28,1.64 1.76,2.56 0.13,0.25 0.26,0.51 0.37,0.77 l -0.81,0.29 -0.81,0.29 -3.34,1.21 -5.59,2.02 -1.2,0.44 -0.06,0.02 -0.04,0.01 -1.22,0.44 -0.66,0.24 -0.6,0.22 -1.26,0.46 -6.98,2.52 c 0.08,0.28 0.16,0.55 0.26,0.81 0.1,0.27 0.21,0.54 0.32,0.8 l 3.35,-1.21 5.57,-2.02 1.22,-0.44 0.04,-0.02 0.05,-0.02 1.21,-0.44 0.66,-0.24 0.6,-0.22 1.26,-0.46 6.99,-2.53 0.81,-0.29 0.81,-0.29 0.81,-0.29 0.81,-0.29 C 30.62,19.37 30.53,19.1 30.43,18.83 30.33,18.56 30.23,18.3 30.11,18.04 30,17.78 29.88,17.52 29.75,17.26 29.55,16.87 29.34,16.49 29.11,16.12 27.92,14.21 26.3,12.59 24.39,11.4 22.16,10.01 19.52,9.21 16.7,9.21 13.88,9.21 11.24,10.01 9,11.4 7.09,12.59 5.47,14.21 4.28,16.12 4.2,16.24 4.13,16.37 4.06,16.5 v 0 c 0,0 0,0 0,0.01 -0.4,0.75 -1.22,0.46 -1.22,0.46 0,0 -0.81,-0.3 -0.41,-1.06 v 0 0 c 1.98,-3.57 5.26,-6.31 9.2,-7.61 1.42,-0.47 2.92,-0.74 4.49,-0.8 0.2,-0.01 0.4,-0.01 0.6,-0.01 0.2,0 0.4,0 0.6,0.01 1.56,0.06 3.06,0.33 4.48,0.8 -0.06,-0.05 -0.12,-0.09 -0.19,-0.14 4.56,1.28 8.32,4.31 10.43,8.27 0.06,0.1 0.11,0.21 0.16,0.31 0.08,0.15 0.15,0.3 0.22,0.46 0.05,0.1 0.09,0.19 0.13,0.29 0.07,0.16 0.15,0.33 0.21,0.5 0.03,0.09 0.07,0.17 0.1,0.26 0.05,0.13 0.1,0.26 0.14,0.39 v 0 c 0.03,0.11 0.06,0.18 0.13,0.16"
     id="path6"
     style="stroke:#ffffff;stroke-width:1.8382;stroke-linecap:round;stroke-linejoin:round;stroke-dasharray:none;stroke-opacity:1;paint-order:markers stroke fill;filter:url(#filter7)"
     transform="matrix(0.81601564,0,0,0.81601564,15.822655,3.9044723)" /><path
     class="st0"
     d="m 16.7,41.03 c -0.07,0 -0.15,0 -0.22,0 0.07,0 0.14,0 0.22,0 0.07,0 0.15,0 0.22,0 -0.07,0 -0.15,0 -0.22,0 M 31.24,29.11 v 0 c -1.62,-0.59 -2.62,-0.05 -3.54,1.45 -0.01,0.02 -0.03,0.04 -0.04,0.06 -0.38,0.62 -0.82,1.2 -1.3,1.75 -0.35,0.4 -0.73,0.78 -1.14,1.14 -1.27,1.12 -2.77,2 -4.41,2.55 -1.29,0.43 -2.68,0.67 -4.11,0.67 -1.44,0 -2.82,-0.23 -4.12,-0.67 C 10.94,35.5 9.44,34.63 8.17,33.51 7.77,33.16 7.39,32.78 7.03,32.37 6.34,31.59 5.75,30.73 5.27,29.81 5.14,29.55 5.01,29.29 4.9,29.03 4.78,28.77 4.68,28.5 4.58,28.23 4.48,27.96 4.4,27.69 4.32,27.42 4.24,27.15 4.17,26.87 4.11,26.59 3.92,25.71 3.82,24.79 3.82,23.86 c 0,-0.94 0.1,-1.85 0.29,-2.74 L 3.29,20.83 2.48,20.53 C 2.23,21.6 2.1,22.71 2.1,23.86 c 0,1.14 0.13,2.26 0.38,3.33 0.07,0.28 0.14,0.56 0.22,0.83 0.08,0.27 0.17,0.54 0.27,0.81 0.1,0.27 0.2,0.54 0.32,0.8 0.11,0.27 0.24,0.53 0.37,0.79 0.2,0.39 0.41,0.77 0.64,1.14 1.19,1.91 2.81,3.53 4.72,4.72 0.61,0.38 1.24,0.71 1.9,0.99 1.78,0.77 3.73,1.19 5.79,1.19 2.06,0 4.01,-0.42 5.79,-1.19 0.66,-0.28 1.3,-0.62 1.9,-0.99 1.91,-1.19 3.53,-2.81 4.72,-4.72 0.08,-0.13 0.15,-0.26 0.23,-0.38 h 0.01 v 0 c 0.45,-0.74 1.22,-0.46 1.22,-0.46 0,0 0.86,0.3 0.41,1.06 -0.01,0.02 -0.02,0.03 -0.03,0.05 -1.65,2.96 -4.2,5.35 -7.27,6.81 -0.62,0.29 -1.25,0.54 -1.9,0.76 -1.33,0.43 -2.73,0.7 -4.18,0.78 -0.09,0 -0.18,0.01 -0.27,0.01 -0.21,0.01 -0.42,0.01 -0.64,0.01 -0.21,0 -0.42,0 -0.64,-0.01 -0.09,0 -0.18,-0.01 -0.26,-0.01 -1.38,-0.07 -2.72,-0.29 -4,-0.65 C 11.05,39.32 10.33,39.06 9.63,38.76 6.06,37.23 3.14,34.57 1.37,31.26 1.31,31.16 1.26,31.05 1.21,30.95 1.13,30.8 1.06,30.64 0.98,30.49 0.93,30.4 0.89,30.3 0.85,30.2 0.78,30.03 0.7,29.86 0.64,29.69 0.6,29.6 0.57,29.52 0.54,29.43 0.47,29.25 0.41,29.07 0.34,28.89 0.31,28.82 0.29,28.74 0.26,28.67 0.21,28.51 0.16,28.34 0.11,28.17 v 0 C 0.1,28.15 0.08,28.07 0.03,28.09 0,28.06 0,28.11 0,28.13 c 0.01,0.04 0.02,0.09 0.03,0.13 0.05,0.21 0.11,0.43 0.17,0.64 0.02,0.08 0.04,0.15 0.06,0.23 0.06,0.2 0.12,0.39 0.18,0.59 0.03,0.09 0.06,0.18 0.09,0.26 0.06,0.19 0.13,0.37 0.2,0.55 0.04,0.1 0.07,0.2 0.11,0.3 0.07,0.17 0.14,0.34 0.21,0.51 0.05,0.11 0.09,0.22 0.14,0.32 1.64,3.57 4.36,6.49 7.72,8.29 2.16,1.15 4.58,1.84 7.14,1.94 0.21,0.01 0.42,0.01 0.64,0.01 0.21,0 0.43,0 0.64,-0.01 2.58,-0.09 5.02,-0.72 7.21,-1.78 3.45,-1.67 6.28,-4.4 8.08,-7.76 0.84,-1.52 0.24,-2.66 -1.38,-3.24"
     id="path7"
     style="stroke:#ffffff;stroke-width:1.8382;stroke-linecap:round;stroke-linejoin:round;stroke-dasharray:none;stroke-opacity:1;paint-order:markers stroke fill;filter:url(#filter7)"
     transform="matrix(0.81601564,0,0,0.81601564,15.822655,3.9044723)" /></g>
</svg>
